<?xml version="1.0" encoding="UTF-8" standalone="no"?>
<!-- Created with Inkscape (http://www.inkscape.org/) -->

<svg
   xmlns:dc="http://purl.org/dc/elements/1.1/"
   xmlns:cc="http://creativecommons.org/ns#"
   xmlns:rdf="http://www.w3.org/1999/02/22-rdf-syntax-ns#"
   xmlns:svg="http://www.w3.org/2000/svg"
   xmlns="http://www.w3.org/2000/svg"
   xmlns:sodipodi="http://sodipodi.sourceforge.net/DTD/sodipodi-0.dtd"
   xmlns:inkscape="http://www.inkscape.org/namespaces/inkscape"
   width="55mm"
   height="86.429001mm"
   viewBox="0 0 55.000003 86.429006"
   version="1.1"
   id="svg8"
   sodipodi:docname="BubbaBirthdayPresentEtch.svg"
   inkscape:version="0.92.3 (2405546, 2018-03-11)">
  <sodipodi:namedview
     id="base"
     pagecolor="#838383"
     bordercolor="#666666"
     borderopacity="1.0"
     inkscape:pageopacity="0"
     inkscape:pageshadow="2"
     inkscape:zoom="2.6724971"
     inkscape:cx="103.93701"
     inkscape:cy="163.3304"
     inkscape:document-units="mm"
     inkscape:current-layer="layer2"
     showgrid="false"
     units="mm"
     inkscape:window-width="1920"
     inkscape:window-height="1043"
     inkscape:window-x="0"
     inkscape:window-y="0"
     inkscape:window-maximized="1"
     showguides="false"
     inkscape:snap-global="false" />
  <defs
     id="defs2" />
  <metadata
     id="metadata5">
    <rdf:RDF>
      <cc:Work
         rdf:about="">
        <dc:format>image/svg+xml</dc:format>
        <dc:type
           rdf:resource="http://purl.org/dc/dcmitype/StillImage" />
        <dc:title></dc:title>
      </cc:Work>
    </rdf:RDF>
  </metadata>
  <g
     inkscape:label="Graphics"
     id="layer2"
     inkscape:groupmode="layer"
     transform="translate(0,-192.97099)">
    <path
       inkscape:connector-curvature="0"
       d="m 27.674869,266.24113 h 2.78083"
       style="fill:none;stroke:#000000;stroke-width:0.15449052"
       id="path1015" />
    <path
       inkscape:connector-curvature="0"
       d=""
       style="fill:none;stroke:#000000;stroke-width:0.15449052"
       id="path1017" />
    <path
       inkscape:connector-curvature="0"
       d="m 36.171848,264.85072 0.154491,-0.46348 v 0.92695 l -0.154491,-0.46347 -0.308981,-0.30899 -0.308981,-0.15449 h -0.463472 l -0.463471,0.15449 -0.308981,0.30899 -0.154491,0.30898 -0.15449,0.46347 v 0.77245 l 0.15449,0.46347 0.154491,0.30898 0.308981,0.30898 0.463471,0.15449 h 0.463472 l 0.308981,-0.15449 h 0.308981 l 0.154491,0.15449 v -1.23592 m -1.853887,-1.5449 -0.15449,0.30898 -0.154491,0.46347 v 0.77245 l 0.154491,0.46347 0.15449,0.30898 m 0.617962,-2.78083 -0.308981,0.15449 -0.308981,0.46348 -0.15449,0.61796 v 0.77245 l 0.15449,0.61796 0.308981,0.46347 0.308981,0.15449 m 1.081434,-1.08143 v 0.77245 m -0.15449,-0.92694 v 0.92694 l -0.154491,0.15449 m -0.308981,-1.08143 h 1.235924 m -1.081433,0 0.308981,0.15449 m -0.154491,-0.15449 0.154491,0.30898 m 0.463471,-0.30898 -0.15449,0.30898 m 0.308981,-0.30898 -0.308981,0.15449"
       style="fill:none;stroke:#000000;stroke-width:0.15449052"
       id="path1019" />
    <path
       inkscape:connector-curvature="0"
       d="m 38.489205,265.46868 -0.463471,0.15449 -0.308981,0.30898 -0.154491,0.46347 v 0.30898 l 0.154491,0.46347 0.308981,0.30898 0.463471,0.15449 h 0.308982 l 0.463471,-0.15449 0.308981,-0.30898 0.154491,-0.46347 v -0.30898 l -0.154491,-0.46347 -0.308981,-0.30898 -0.463471,-0.15449 h -0.308982 m -0.617962,0.46347 -0.15449,0.30898 v 0.61796 l 0.15449,0.30898 m 1.544906,0 0.15449,-0.30898 v -0.61796 l -0.15449,-0.30898 m -0.926944,-0.46347 -0.308981,0.15449 -0.15449,0.15449 -0.154491,0.46347 v 0.61796 l 0.154491,0.46347 0.15449,0.15449 0.308981,0.15449 m 0.308982,0 0.308981,-0.15449 0.15449,-0.15449 0.154491,-0.46347 v -0.61796 l -0.154491,-0.46347 -0.15449,-0.15449 -0.308981,-0.15449"
       style="fill:none;stroke:#000000;stroke-width:0.15449052"
       id="path1021" />
    <path
       inkscape:connector-curvature="0"
       d="m 40.961054,265.46868 v 2.16286 m 0.15449,-2.00837 v 1.85388 m -0.617962,-2.00837 h 0.772453 v 2.16286 m 1.081434,-1.85388 v -0.15449 h -0.154491 v 0.30898 h 0.308981 v -0.30898 l -0.15449,-0.15449 h -0.308981 l -0.308981,0.15449 -0.308982,0.30898 -0.15449,0.46347 m -0.772453,1.23592 h 1.235925 m -1.081434,-2.16286 0.308981,0.15449 m -0.154491,-0.15449 0.154491,0.30898 m 0,1.69939 -0.308981,0.15449 m 0.308981,-0.30898 -0.154491,0.30898 m 0.463472,-0.30898 0.15449,0.30898 m -0.15449,-0.15449 0.308981,0.15449"
       style="fill:none;stroke:#000000;stroke-width:0.15449052"
       id="path1023" />
    <path
       inkscape:connector-curvature="0"
       d="m 44.977807,264.38724 v 3.2443 h 0.772453 m -0.617962,-3.08981 v 2.93532 m -0.617962,-3.08981 h 0.772452 v 3.2443 m -0.308981,-1.69939 -0.15449,-0.30898 -0.308981,-0.15449 h -0.308982 l -0.463471,0.15449 -0.308981,0.30898 -0.154491,0.46347 v 0.30898 l 0.154491,0.46347 0.308981,0.30898 0.463471,0.15449 h 0.308982 l 0.308981,-0.15449 0.15449,-0.30898 m -1.390415,-1.23592 -0.15449,0.30898 v 0.61796 l 0.15449,0.30898 m 0.617962,-1.69939 -0.308981,0.15449 -0.15449,0.15449 -0.154491,0.46347 v 0.61796 l 0.154491,0.46347 0.15449,0.15449 0.308981,0.15449 m 0.463472,-3.2443 0.308981,0.15449 m -0.15449,-0.15449 0.15449,0.30898 m 0.308981,2.62634 0.154491,0.30898 m -0.154491,-0.15449 0.308981,0.15449"
       style="fill:none;stroke:#000000;stroke-width:0.15449052"
       id="path1025" />
    <path
       inkscape:connector-curvature="0"
       d="m 47.449655,265.46868 -0.463471,0.15449 -0.308981,0.30898 -0.154491,0.46347 v 0.30898 l 0.154491,0.46347 0.308981,0.30898 0.463471,0.15449 h 0.308982 l 0.463471,-0.15449 0.308981,-0.30898 0.154491,-0.46347 v -0.30898 l -0.154491,-0.46347 -0.308981,-0.30898 -0.463471,-0.15449 h -0.308982 m -0.617962,0.46347 -0.15449,0.30898 v 0.61796 l 0.15449,0.30898 m 1.544906,0 0.15449,-0.30898 v -0.61796 l -0.15449,-0.30898 m -0.926944,-0.46347 -0.308981,0.15449 -0.15449,0.15449 -0.154491,0.46347 v 0.61796 l 0.154491,0.46347 0.15449,0.15449 0.308981,0.15449 m 0.308982,0 0.308981,-0.15449 0.15449,-0.15449 0.154491,-0.46347 v -0.61796 l -0.154491,-0.46347 -0.15449,-0.15449 -0.308981,-0.15449"
       style="fill:none;stroke:#000000;stroke-width:0.15449052"
       id="path1027" />
    <path
       inkscape:connector-curvature="0"
       d="m 49.921504,265.46868 v 2.16286 m 0.15449,-2.00837 v 1.85388 m -0.617962,-2.00837 h 0.772453 v 2.16286 m 0,-1.5449 0.15449,-0.30898 0.154491,-0.15449 0.308981,-0.15449 h 0.463472 l 0.308981,0.15449 0.15449,0.15449 0.154491,0.46347 v 1.39041 m -0.308981,-1.85388 0.15449,0.46347 v 1.23592 m -0.463471,-2.00837 0.15449,0.15449 0.154491,0.46347 v 1.5449 m -2.162868,0 h 1.235924 m 0.463472,0 h 1.235924 m -2.780829,-2.16286 0.308981,0.15449 m -0.154491,-0.15449 0.154491,0.30898 m 0,1.69939 -0.308981,0.15449 m 0.308981,-0.30898 -0.154491,0.30898 m 0.463472,-0.30898 0.15449,0.30898 m -0.15449,-0.15449 0.308981,0.15449 m 1.081434,-0.15449 -0.308981,0.15449 m 0.308981,-0.30898 -0.154491,0.30898 m 0.463472,-0.30898 0.15449,0.30898 m -0.15449,-0.15449 0.308981,0.15449"
       style="fill:none;stroke:#000000;stroke-width:0.15449052"
       id="path1029" />
    <path
       inkscape:connector-curvature="0"
       d="m 2.1519402,256.58792 v 3.26664 m 0.1555541,-3.11108 v 2.95552 m 0.155554,-3.11108 v 3.26664 M 1.685278,256.58792 h 2.4888648 v 0.93333 m -1.7110945,0.62221 h 0.9333243 m 0,-0.62221 v 1.24443 m -1.7110946,1.08888 h 1.2444325 m -1.0888784,-3.26664 0.3111081,0.15556 m -0.155554,-0.15556 0.155554,0.31111 m 0.4666622,-0.31111 -0.1555541,0.31111 m 0.3111081,-0.31111 -0.3111081,0.15556 m 0.9333243,-0.15556 0.7777702,0.15556 m -0.4666621,-0.15556 0.4666621,0.31111 m -0.311108,-0.31111 0.311108,0.46666 m -0.155554,-0.46666 0.155554,0.93333 m -0.7777702,0 -0.155554,0.62221 0.155554,0.62222 m 0,-0.93333 -0.3111081,0.31111 0.3111081,0.31111 m 0,-0.46666 -0.6222162,0.15555 0.6222162,0.15556 m -1.2444324,1.39998 -0.3111081,0.15556 m 0.3111081,-0.31111 -0.155554,0.31111 m 0.4666621,-0.31111 0.1555541,0.31111 m -0.1555541,-0.15556 0.3111081,0.15556"
       style="fill:none;stroke:#000000;stroke-width:0.15555406"
       id="path1241" />
    <path
       inkscape:connector-curvature="0"
       d="m 5.8852374,257.6768 -0.4666621,0.15555 -0.3111081,0.31111 -0.1555541,0.46666 v 0.31111 l 0.1555541,0.46666 0.3111081,0.31111 0.4666621,0.15556 h 0.3111081 l 0.4666622,-0.15556 0.3111081,-0.31111 0.155554,-0.46666 v -0.31111 L 6.9741158,258.14346 6.6630077,257.83235 6.1963455,257.6768 H 5.8852374 m -0.6222161,0.46666 -0.1555541,0.31111 v 0.62222 l 0.1555541,0.3111 m 1.5555404,0 0.1555541,-0.3111 v -0.62222 l -0.1555541,-0.31111 m -0.9333243,-0.46666 -0.3111081,0.15555 -0.155554,0.15556 -0.155554,0.46666 v 0.62222 l 0.155554,0.46666 0.155554,0.15555 0.3111081,0.15556 m 0.3111081,0 0.3111082,-0.15556 0.155554,-0.15555 0.155554,-0.46666 v -0.62222 l -0.155554,-0.46666 -0.155554,-0.15556 -0.3111082,-0.15555"
       style="fill:none;stroke:#000000;stroke-width:0.15555406"
       id="path1243" />
    <path
       inkscape:connector-curvature="0"
       d="m 8.3741023,257.6768 v 2.17776 m 0.1555541,-2.02221 v 1.86665 m -0.6222163,-2.0222 h 0.7777703 v 2.17776 m 1.0888783,-1.86665 v -0.15556 h -0.155554 v 0.31111 h 0.3111081 v -0.31111 L 9.7740887,257.6768 H 9.4629806 l -0.3111081,0.15555 -0.311108,0.31111 -0.1555541,0.46666 m -0.7777703,1.24444 h 1.2444324 m -1.0888783,-2.17776 0.3111081,0.15555 m -0.155554,-0.15555 0.155554,0.31111 m 0,1.71109 -0.3111081,0.15556 m 0.3111081,-0.31111 -0.155554,0.31111 m 0.4666621,-0.31111 0.1555541,0.31111 m -0.1555541,-0.15556 0.3111081,0.15556"
       style="fill:none;stroke:#000000;stroke-width:0.15555406"
       id="path1245" />
    <path
       inkscape:connector-curvature="0"
       d="m 11.018521,258.61012 h 1.711094 v -0.3111 l -0.155554,-0.31111 -0.155554,-0.15556 -0.466662,-0.15555 h -0.311108 l -0.466662,0.15555 -0.311108,0.31111 -0.155554,0.46666 v 0.31111 l 0.155554,0.46666 0.311108,0.31111 0.466662,0.15556 h 0.311108 l 0.466662,-0.15556 0.311108,-0.31111 m -0.155554,-0.93332 v -0.15555 l -0.155554,-0.31111 m -1.399986,0.15555 -0.155554,0.31111 v 0.62222 l 0.155554,0.3111 m 1.399986,-0.77777 v -0.46666 l -0.155554,-0.31111 -0.311108,-0.15555 m -0.311108,0 -0.311108,0.15555 -0.155554,0.15556 -0.155554,0.46666 v 0.62222 l 0.155554,0.46666 0.155554,0.15555 0.311108,0.15556"
       style="fill:none;stroke:#000000;stroke-width:0.15555406"
       id="path1247" />
    <path
       inkscape:connector-curvature="0"
       d="m 13.66294,257.6768 0.933324,2.17776 m -0.77777,-2.17776 0.77777,1.86665 m -0.622216,-1.86665 0.77777,1.86665 m 0.77777,-1.7111 -0.77777,1.7111 -0.155554,0.31111 m -1.244432,-2.17776 h 1.088878 m 0.466662,0 h 0.933324 m -2.33331,0 0.466662,0.31111 m 0.311108,-0.31111 -0.311108,0.15555 m 1.244432,-0.15555 0.311108,0.15555 m 0.155554,-0.15555 -0.155554,0.15555"
       style="fill:none;stroke:#000000;stroke-width:0.15555406"
       id="path1249" />
    <path
       inkscape:connector-curvature="0"
       d="m 16.774021,258.61012 h 1.711094 v -0.3111 l -0.155554,-0.31111 -0.155554,-0.15556 -0.466662,-0.15555 h -0.311108 l -0.466662,0.15555 -0.311108,0.31111 -0.155554,0.46666 v 0.31111 l 0.155554,0.46666 0.311108,0.31111 0.466662,0.15556 h 0.311108 l 0.466662,-0.15556 0.311108,-0.31111 m -0.155554,-0.93332 v -0.15555 l -0.155554,-0.31111 m -1.399986,0.15555 -0.155554,0.31111 v 0.62222 l 0.155554,0.3111 m 1.399986,-0.77777 v -0.46666 l -0.155554,-0.31111 -0.311108,-0.15555 m -0.311108,0 -0.311108,0.15555 -0.155554,0.15556 -0.155554,0.46666 v 0.62222 l 0.155554,0.46666 0.155554,0.15555 0.311108,0.15556"
       style="fill:none;stroke:#000000;stroke-width:0.15555406"
       id="path1251" />
    <path
       inkscape:connector-curvature="0"
       d="m 19.729548,257.6768 v 2.17776 m 0.155554,-2.02221 v 1.86665 m -0.622216,-2.0222 h 0.77777 v 2.17776 m 1.088878,-1.86665 v -0.15556 H 20.97398 v 0.31111 h 0.311108 v -0.31111 l -0.155554,-0.15555 h -0.311108 l -0.311108,0.15555 -0.311108,0.31111 -0.155554,0.46666 m -0.77777,1.24444 h 1.244432 m -1.088878,-2.17776 0.311108,0.15555 m -0.155554,-0.15555 0.155554,0.31111 m 0,1.71109 -0.311108,0.15556 m 0.311108,-0.31111 -0.155554,0.31111 m 0.466662,-0.31111 0.155554,0.31111 m -0.155554,-0.15556 0.311108,0.15556"
       style="fill:none;stroke:#000000;stroke-width:0.15555406"
       id="path1253" />
    <path
       inkscape:connector-curvature="0"
       d="m 22.685075,259.699 -0.155554,0.15556 H 22.373967 L 22.218413,259.699 v -0.15555 l 0.155554,-0.15556 h 0.155554 l 0.155554,0.15556 v 0.46666 l -0.155554,0.31111 -0.311108,0.15555 m 0.155554,-0.93332 v 0.15555 h 0.155554 v -0.15555 h -0.155554 m 0.155554,0.31111 0.155554,0.15555 m 0,-0.31111 -0.155554,0.62222"
       style="fill:none;stroke:#000000;stroke-width:0.15555406"
       id="path1255" />
    <path
       inkscape:connector-curvature="0"
       d=""
       style="fill:none;stroke:#000000;stroke-width:0.15555406"
       id="path1257" />
    <path
       inkscape:connector-curvature="0"
       d="m 26.573926,256.58792 v 3.26664 m 0.155554,-3.11108 v 2.95552 m 0.155554,-3.11108 v 3.26664 m -0.77777,-3.26664 h 1.244432 m -1.244432,3.26664 h 1.244432 m -1.088878,-3.26664 0.311108,0.15556 m -0.155554,-0.15556 0.155554,0.31111 m 0.466662,-0.31111 -0.155554,0.31111 m 0.311108,-0.31111 -0.311108,0.15556 m -0.311108,2.95552 -0.311108,0.15556 m 0.311108,-0.31111 -0.155554,0.31111 m 0.466662,-0.31111 0.155554,0.31111 m -0.155554,-0.15556 0.311108,0.15556"
       style="fill:none;stroke:#000000;stroke-width:0.15555406"
       id="path1259" />
    <path
       inkscape:connector-curvature="0"
       d=""
       style="fill:none;stroke:#000000;stroke-width:0.15555406"
       id="path1261" />
    <path
       inkscape:connector-curvature="0"
       d="m 30.92944,256.58792 v 3.26664 m 0.155554,-3.11108 v 2.95552 m -0.622216,-3.11108 h 0.77777 v 3.26664 m -0.77777,0 h 1.244432 m -1.088878,-3.26664 0.311108,0.15556 m -0.155554,-0.15556 0.155554,0.31111 m 0,2.79997 -0.311108,0.15556 m 0.311108,-0.31111 -0.155554,0.31111 m 0.466662,-0.31111 0.155554,0.31111 m -0.155554,-0.15556 0.311108,0.15556"
       style="fill:none;stroke:#000000;stroke-width:0.15555406"
       id="path1263" />
    <path
       inkscape:connector-curvature="0"
       d="m 33.418304,257.6768 -0.466662,0.15555 -0.311108,0.31111 -0.155554,0.46666 v 0.31111 l 0.155554,0.46666 0.311108,0.31111 0.466662,0.15556 h 0.311108 l 0.466662,-0.15556 0.311108,-0.31111 0.155554,-0.46666 v -0.31111 l -0.155554,-0.46666 -0.311108,-0.31111 -0.466662,-0.15555 h -0.311108 m -0.622216,0.46666 -0.155554,0.31111 v 0.62222 l 0.155554,0.3111 m 1.55554,0 0.155554,-0.3111 v -0.62222 l -0.155554,-0.31111 m -0.933324,-0.46666 -0.311108,0.15555 -0.155554,0.15556 -0.155554,0.46666 v 0.62222 l 0.155554,0.46666 0.155554,0.15555 0.311108,0.15556 m 0.311108,0 0.311108,-0.15556 0.155554,-0.15555 0.155554,-0.46666 v -0.62222 l -0.155554,-0.46666 -0.155554,-0.15556 -0.311108,-0.15555"
       style="fill:none;stroke:#000000;stroke-width:0.15555406"
       id="path1265" />
    <path
       inkscape:connector-curvature="0"
       d="m 35.596061,257.6768 0.933324,2.17776 m -0.77777,-2.17776 0.77777,1.86665 m -0.622216,-1.86665 0.77777,1.86665 m 0.77777,-1.7111 -0.77777,1.7111 -0.155554,0.31111 m -1.244432,-2.17776 h 1.088878 m 0.466662,0 h 0.933324 m -2.33331,0 0.466662,0.31111 m 0.311108,-0.31111 -0.311108,0.15555 m 1.244432,-0.15555 0.311108,0.15555 m 0.155554,-0.15555 -0.155554,0.15555"
       style="fill:none;stroke:#000000;stroke-width:0.15555406"
       id="path1267" />
    <path
       inkscape:connector-curvature="0"
       d="m 38.707142,258.61012 h 1.711094 v -0.3111 l -0.155554,-0.31111 -0.155554,-0.15556 -0.466662,-0.15555 h -0.311108 l -0.466662,0.15555 -0.311108,0.31111 -0.155554,0.46666 v 0.31111 l 0.155554,0.46666 0.311108,0.31111 0.466662,0.15556 h 0.311108 l 0.466662,-0.15556 0.311108,-0.31111 m -0.155554,-0.93332 v -0.15555 l -0.155554,-0.31111 m -1.399986,0.15555 -0.155554,0.31111 v 0.62222 l 0.155554,0.3111 m 1.399986,-0.77777 v -0.46666 l -0.155554,-0.31111 -0.311108,-0.15555 m -0.311108,0 -0.311108,0.15555 -0.155554,0.15556 -0.155554,0.46666 v 0.62222 l 0.155554,0.46666 0.155554,0.15555 0.311108,0.15556"
       style="fill:none;stroke:#000000;stroke-width:0.15555406"
       id="path1269" />
    <path
       inkscape:connector-curvature="0"
       d=""
       style="fill:none;stroke:#000000;stroke-width:0.15555406"
       id="path1271" />
    <path
       inkscape:connector-curvature="0"
       d="m 43.99598,257.6768 0.933324,2.17776 m -0.77777,-2.17776 0.77777,1.86665 m -0.622216,-1.86665 0.77777,1.86665 m 0.77777,-1.7111 -0.77777,1.7111 -0.466662,0.93332 -0.311108,0.31111 -0.311108,0.15555 h -0.311108 l -0.155554,-0.15555 v -0.31111 h 0.311108 v 0.31111 h -0.155554 v -0.15555 m 0,-2.95553 h 1.088878 m 0.466662,0 h 0.933324 m -2.33331,0 0.466662,0.31111 m 0.311108,-0.31111 -0.311108,0.15555 m 1.244432,-0.15555 0.311108,0.15555 m 0.155554,-0.15555 -0.155554,0.15555"
       style="fill:none;stroke:#000000;stroke-width:0.15555406"
       id="path1273" />
    <path
       inkscape:connector-curvature="0"
       d="m 47.729277,257.6768 -0.466662,0.15555 -0.311108,0.31111 -0.155554,0.46666 v 0.31111 l 0.155554,0.46666 0.311108,0.31111 0.466662,0.15556 h 0.311108 l 0.466662,-0.15556 0.311108,-0.31111 0.155554,-0.46666 v -0.31111 l -0.155554,-0.46666 -0.311108,-0.31111 -0.466662,-0.15555 h -0.311108 m -0.622216,0.46666 -0.155554,0.31111 v 0.62222 l 0.155554,0.3111 m 1.55554,0 0.155554,-0.3111 v -0.62222 l -0.155554,-0.31111 m -0.933324,-0.46666 -0.311108,0.15555 -0.155554,0.15556 -0.155554,0.46666 v 0.62222 l 0.155554,0.46666 0.155554,0.15555 0.311108,0.15556 m 0.311108,0 0.311108,-0.15556 0.155554,-0.15555 0.155554,-0.46666 v -0.62222 l -0.155554,-0.46666 -0.155554,-0.15556 -0.311108,-0.15555"
       style="fill:none;stroke:#000000;stroke-width:0.15555406"
       id="path1275" />
    <path
       inkscape:connector-curvature="0"
       d="m 50.218142,257.6768 v 1.39999 l 0.155554,0.46666 0.155554,0.15555 0.311108,0.15556 h 0.466662 l 0.311108,-0.15556 0.155554,-0.15555 0.155554,-0.31111 m -1.55554,-1.39999 v 1.39999 l 0.155554,0.31111 m -0.77777,-1.86665 h 0.77777 v 1.55554 l 0.155554,0.46666 0.155554,0.15556 m 1.088878,-2.17776 v 2.17776 h 0.77777 m -0.622216,-2.02221 v 1.86665 m -0.622216,-2.0222 h 0.77777 v 2.17776 m -2.33331,-2.17776 0.311108,0.15555 m -0.155554,-0.15555 0.155554,0.31111 m 2.022202,1.55554 0.155554,0.31111 m -0.155554,-0.15556 0.311108,0.15556"
       style="fill:none;stroke:#000000;stroke-width:0.15555406"
       id="path1277" />
    <path
       style="fill:none;fill-opacity:1;stroke:#ffffff;stroke-width:0.00213508;stroke-miterlimit:4;stroke-dasharray:none;stroke-opacity:1"
       d="M 0.09893247,279.35001 A 0.04893246,0.04893246 0 0 1 0.05,279.39894 0.04893246,0.04893246 0 0 1 0.00106754,279.35001 0.04893246,0.04893246 0 0 1 0.05,279.30107 a 0.04893246,0.04893246 0 0 1 0.04893247,0.0489 z"
       id="path880" />
    <path
       style="fill:none;fill-opacity:1;stroke:#ffffff;stroke-width:0.00213508;stroke-miterlimit:4;stroke-dasharray:none;stroke-opacity:1"
       d="m 54.998933,193.021 a 0.04893246,0.04893246 0 0 1 -0.04893,0.0489 0.04893246,0.04893246 0 0 1 -0.04893,-0.0489 0.04893246,0.04893246 0 0 1 0.04893,-0.0489 0.04893246,0.04893246 0 0 1 0.04893,0.0489 z"
       id="circle882" />
  </g>
</svg>
