<?xml version="1.0" encoding="UTF-8" standalone="no"?>
<!-- Created with Inkscape (http://www.inkscape.org/) -->

<svg
   xmlns:dc="http://purl.org/dc/elements/1.1/"
   xmlns:cc="http://creativecommons.org/ns#"
   xmlns:rdf="http://www.w3.org/1999/02/22-rdf-syntax-ns#"
   xmlns:svg="http://www.w3.org/2000/svg"
   xmlns="http://www.w3.org/2000/svg"
   xmlns:sodipodi="http://sodipodi.sourceforge.net/DTD/sodipodi-0.dtd"
   xmlns:inkscape="http://www.inkscape.org/namespaces/inkscape"
   width="105.04mm"
   height="105.063mm"
   viewBox="0 0 105.04001 105.06301"
   version="1.1"
   id="svg8"
   sodipodi:docname="Version2Cut.svg"
   inkscape:version="0.92.3 (2405546, 2018-03-11)">
  <defs
     id="defs2" />
  <sodipodi:namedview
     id="base"
     pagecolor="#838383"
     bordercolor="#666666"
     borderopacity="1.0"
     inkscape:pageopacity="0"
     inkscape:pageshadow="2"
     inkscape:zoom="1.5545759"
     inkscape:cx="256.36831"
     inkscape:cy="192.39556"
     inkscape:document-units="mm"
     inkscape:current-layer="layer2"
     showgrid="false"
     units="mm"
     inkscape:window-width="1920"
     inkscape:window-height="1043"
     inkscape:window-x="0"
     inkscape:window-y="0"
     inkscape:window-maximized="1"
     showguides="false"
     inkscape:snap-global="false" />
  <metadata
     id="metadata5">
    <rdf:RDF>
      <cc:Work
         rdf:about="">
        <dc:format>image/svg+xml</dc:format>
        <dc:type
           rdf:resource="http://purl.org/dc/dcmitype/StillImage" />
        <dc:title></dc:title>
      </cc:Work>
    </rdf:RDF>
  </metadata>
  <g
     inkscape:groupmode="layer"
     id="layer2"
     inkscape:label="Graphics"
     transform="translate(0,-174.33699)">
    <path
       inkscape:connector-curvature="0"
       d=""
       style="fill:none;stroke:#000000;stroke-width:0.15449052"
       id="path1017" />
    <path
       inkscape:connector-curvature="0"
       d=""
       style="fill:none;stroke:#000000;stroke-width:0.15555406"
       id="path1257" />
    <path
       inkscape:connector-curvature="0"
       d=""
       style="fill:none;stroke:#000000;stroke-width:0.15555406"
       id="path1261" />
    <path
       inkscape:connector-curvature="0"
       d=""
       style="fill:none;stroke:#000000;stroke-width:0.15555406"
       id="path1271" />
    <path
       style="fill:none;fill-opacity:1;stroke:#ffffff;stroke-width:0.09781355;stroke-miterlimit:4;stroke-dasharray:none;stroke-opacity:1"
       d="m 4.017658,174.38567 h 97.004212 c 2.19868,0 3.96875,1.77006 3.96875,3.96875 v 97.00714 c 0,2.19869 -1.77007,3.96875 -3.96875,3.96875 H 14.107318 c 0,0 -1.967628,-4.5836 -3.624843,-3.92886 -0.986031,0.38956 1.212889,2.39615 0.02339,3.18051 -1.639988,1.0814 -3.507081,0.97039 -5.215098,0 -1.104642,-0.6276 0.541157,-2.2529 -0.08042,-3.06358 -1.092075,-1.42432 -5.16144,0.66525 -5.16144,-1.53344 v -94.06365 c 0,-2.19869 1.770062,-5.53562 3.968751,-5.53562 z"
       id="rect897"
       inkscape:connector-curvature="0"
       sodipodi:nodetypes="ssssscassasss" />
    <path
       style="fill:none;fill-opacity:1;stroke:#ffffff;stroke-width:0.12642898;stroke-miterlimit:4;stroke-dasharray:none;stroke-opacity:1"
       d="m 14.7495,182.56511 a 4.6831398,4.6831398 0 0 1 -4.68314,4.68314 4.6831398,4.6831398 0 0 1 -4.6831393,-4.68314 4.6831398,4.6831398 0 0 1 4.6831393,-4.68314 4.6831398,4.6831398 0 0 1 4.68314,4.68314 z"
       id="path899" />
    <path
       style="fill:none;fill-opacity:1;stroke:#ffffff;stroke-width:0.00194002;stroke-miterlimit:4;stroke-dasharray:none;stroke-opacity:1"
       d="M 0.09902998,279.35001 A 0.04902999,0.04902999 0 0 1 0.05,279.39904 0.04902999,0.04902999 0 0 1 9.7000971e-4,279.35001 0.04902999,0.04902999 0 0 1 0.05,279.30098 a 0.04902999,0.04902999 0 0 1 0.04902998,0.049 z"
       id="path954" />
    <path
       style="fill:none;fill-opacity:1;stroke:#ffffff;stroke-width:0.00194002;stroke-miterlimit:4;stroke-dasharray:none;stroke-opacity:1"
       d="M 0.09902998,279.35001 A 0.04902999,0.04902999 0 0 1 0.05,279.39904 0.04902999,0.04902999 0 0 1 9.7000971e-4,279.35001 0.04902999,0.04902999 0 0 1 0.05,279.30098 a 0.04902999,0.04902999 0 0 1 0.04902998,0.049 z"
       id="circle956" />
    <path
       style="fill:none;fill-opacity:1;stroke:#ffffff;stroke-width:0.00194002;stroke-miterlimit:4;stroke-dasharray:none;stroke-opacity:1"
       d="m 105.03903,174.39 a 0.04902999,0.04902999 0 0 1 -0.049,0.049 0.04902999,0.04902999 0 0 1 -0.049,-0.049 0.04902999,0.04902999 0 0 1 0.049,-0.049 0.04902999,0.04902999 0 0 1 0.049,0.049 z"
       id="circle958" />
    <path
       style="fill:none;fill-opacity:1;stroke:#ffffff;stroke-width:0.00194002;stroke-miterlimit:4;stroke-dasharray:none;stroke-opacity:1"
       d="m 105.03903,174.39 a 0.04902999,0.04902999 0 0 1 -0.049,0.049 0.04902999,0.04902999 0 0 1 -0.049,-0.049 0.04902999,0.04902999 0 0 1 0.049,-0.049 0.04902999,0.04902999 0 0 1 0.049,0.049 z"
       id="circle960" />
  </g>
</svg>
